<svg width="12" height="14" viewBox="0 0 12 14" fill="none" xmlns="http://www.w3.org/2000/svg">
<path d="M7.49954 4C7.89511 4 8.28179 3.8827 8.61068 3.66294C8.93958 3.44318 9.19593 3.13082 9.3473 2.76537C9.49868 2.39992 9.53829 1.99778 9.46111 1.60982C9.38394 1.22186 9.19346 0.865492 8.91376 0.585787C8.63405 0.306082 8.27769 0.115601 7.88972 0.0384303C7.50176 -0.0387401 7.09963 0.000866562 6.73418 0.152242C6.36873 0.303617 6.05637 0.559962 5.83661 0.88886C5.61684 1.21776 5.49954 1.60444 5.49954 2C5.49954 2.53043 5.71026 3.03914 6.08533 3.41422C6.4604 3.78929 6.96911 4 7.49954 4ZM7.49954 1C7.69733 1 7.89067 1.05865 8.05511 1.16853C8.21956 1.27841 8.34774 1.43459 8.42342 1.61732C8.49911 1.80004 8.51892 2.00111 8.48033 2.19509C8.44174 2.38907 8.3465 2.56726 8.20665 2.70711C8.0668 2.84696 7.88862 2.9422 7.69463 2.98079C7.50065 3.01937 7.29959 2.99957 7.11686 2.92388C6.93413 2.84819 6.77796 2.72002 6.66807 2.55557C6.55819 2.39112 6.49954 2.19778 6.49954 2C6.49954 1.73478 6.6049 1.48043 6.79244 1.29289C6.97997 1.10536 7.23433 1 7.49954 1ZM11.4995 8C11.4995 8.13261 11.4469 8.25979 11.3531 8.35356C11.2593 8.44732 11.1322 8.5 10.9995 8.5C8.79267 8.5 7.69017 7.38688 6.80454 6.4925C6.63329 6.31938 6.46954 6.155 6.30454 6.0025L5.46517 7.9325L7.79017 9.59313C7.85493 9.63939 7.90772 9.70044 7.94413 9.77121C7.98055 9.84198 7.99955 9.92041 7.99954 10V13.5C7.99954 13.6326 7.94687 13.7598 7.8531 13.8536C7.75933 13.9473 7.63215 14 7.49954 14C7.36694 14 7.23976 13.9473 7.14599 13.8536C7.05222 13.7598 6.99954 13.6326 6.99954 13.5V10.2575L5.05767 8.87L2.95829 13.6994C2.91944 13.7887 2.85532 13.8648 2.77382 13.9182C2.69232 13.9716 2.59699 14 2.49954 14C2.43089 14.0002 2.36296 13.9859 2.30017 13.9581C2.17862 13.9053 2.08303 13.8064 2.03439 13.6831C1.98575 13.5598 1.98806 13.4222 2.04079 13.3006L5.42079 5.5275C4.83892 5.42438 4.11329 5.6025 3.25204 6.06375C2.56517 6.44263 1.92409 6.89917 1.34142 7.42438C1.24416 7.51149 1.11669 7.55711 0.986237 7.55148C0.855789 7.54584 0.73272 7.48941 0.643337 7.39423C0.553953 7.29905 0.505347 7.17268 0.507909 7.04213C0.51047 6.91159 0.563996 6.78723 0.657044 6.69563C0.813294 6.54875 4.51267 3.11875 6.82704 5.12813C7.06642 5.33563 7.29454 5.56563 7.51454 5.78875C8.38642 6.66875 9.20954 7.5 10.9995 7.5C11.1322 7.5 11.2593 7.55268 11.3531 7.64645C11.4469 7.74022 11.4995 7.86739 11.4995 8Z" fill="#3B3B3B"/>
</svg>
