<svg width="18" height="14" viewBox="0 0 18 14" fill="none" xmlns="http://www.w3.org/2000/svg">
<path d="M17.25 5.125C17.4158 5.125 17.5747 5.05915 17.6919 4.94194C17.8092 4.82473 17.875 4.66576 17.875 4.5V2C17.875 1.66848 17.7433 1.35054 17.5089 1.11612C17.2745 0.881696 16.9565 0.75 16.625 0.75H1.625C1.29348 0.75 0.975537 0.881696 0.741116 1.11612C0.506696 1.35054 0.375 1.66848 0.375 2V4.5C0.375 4.66576 0.440848 4.82473 0.558058 4.94194C0.675268 5.05915 0.83424 5.125 1 5.125C1.49728 5.125 1.97419 5.32254 2.32583 5.67417C2.67746 6.02581 2.875 6.50272 2.875 7C2.875 7.49728 2.67746 7.97419 2.32583 8.32583C1.97419 8.67746 1.49728 8.875 1 8.875C0.83424 8.875 0.675268 8.94085 0.558058 9.05806C0.440848 9.17527 0.375 9.33424 0.375 9.5V12C0.375 12.3315 0.506696 12.6495 0.741116 12.8839C0.975537 13.1183 1.29348 13.25 1.625 13.25H16.625C16.9565 13.25 17.2745 13.1183 17.5089 12.8839C17.7433 12.6495 17.875 12.3315 17.875 12V9.5C17.875 9.33424 17.8092 9.17527 17.6919 9.05806C17.5747 8.94085 17.4158 8.875 17.25 8.875C16.7527 8.875 16.2758 8.67746 15.9242 8.32583C15.5725 7.97419 15.375 7.49728 15.375 7C15.375 6.50272 15.5725 6.02581 15.9242 5.67417C16.2758 5.32254 16.7527 5.125 17.25 5.125ZM1.625 10.0625C2.33143 9.91905 2.96655 9.53579 3.42274 8.97766C3.87893 8.41953 4.12813 7.72085 4.12813 7C4.12813 6.27915 3.87893 5.58047 3.42274 5.02234C2.96655 4.46421 2.33143 4.08095 1.625 3.9375V2H6V12H1.625V10.0625ZM16.625 10.0625V12H7.25V2H16.625V3.9375C15.9186 4.08095 15.2835 4.46421 14.8273 5.02234C14.3711 5.58047 14.1219 6.27915 14.1219 7C14.1219 7.72085 14.3711 8.41953 14.8273 8.97766C15.2835 9.53579 15.9186 9.91905 16.625 10.0625Z" fill="#9C9C9C"/>
</svg>
