<svg width="18" height="14" viewBox="0 0 18 14" fill="none" xmlns="http://www.w3.org/2000/svg">
<path d="M17 10.125H16.375V2.625C16.375 2.12772 16.1775 1.65081 15.8258 1.29917C15.4742 0.947544 14.9973 0.75 14.5 0.75H3.25C2.75272 0.75 2.27581 0.947544 1.92417 1.29917C1.57254 1.65081 1.375 2.12772 1.375 2.625V10.125H0.75C0.58424 10.125 0.425268 10.1908 0.308058 10.3081C0.190848 10.4253 0.125 10.5842 0.125 10.75V12C0.125 12.4973 0.322544 12.9742 0.674175 13.3258C1.02581 13.6775 1.50272 13.875 2 13.875H15.75C16.2473 13.875 16.7242 13.6775 17.0758 13.3258C17.4275 12.9742 17.625 12.4973 17.625 12V10.75C17.625 10.5842 17.5592 10.4253 17.4419 10.3081C17.3247 10.1908 17.1658 10.125 17 10.125ZM2.625 2.625C2.625 2.45924 2.69085 2.30027 2.80806 2.18306C2.92527 2.06585 3.08424 2 3.25 2H14.5C14.6658 2 14.8247 2.06585 14.9419 2.18306C15.0592 2.30027 15.125 2.45924 15.125 2.625V10.125H2.625V2.625ZM16.375 12C16.375 12.1658 16.3092 12.3247 16.1919 12.4419C16.0747 12.5592 15.9158 12.625 15.75 12.625H2C1.83424 12.625 1.67527 12.5592 1.55806 12.4419C1.44085 12.3247 1.375 12.1658 1.375 12V11.375H16.375V12ZM10.75 3.875C10.75 4.04076 10.6842 4.19973 10.5669 4.31694C10.4497 4.43415 10.2908 4.5 10.125 4.5H7.625C7.45924 4.5 7.30027 4.43415 7.18306 4.31694C7.06585 4.19973 7 4.04076 7 3.875C7 3.70924 7.06585 3.55027 7.18306 3.43306C7.30027 3.31585 7.45924 3.25 7.625 3.25H10.125C10.2908 3.25 10.4497 3.31585 10.5669 3.43306C10.6842 3.55027 10.75 3.70924 10.75 3.875Z" fill="#9C9C9C"/>
</svg>
